<svg xmlns="http://www.w3.org/2000/svg" width="60" height="60" fill="none">
    <style><![CDATA[.B{fill:#4c739e}.C{fill:#fff}]]></style>
    <path d="M23.64 60c12.294 0 22.26-9.966 22.26-22.26s-9.966-22.26-22.26-22.26S1.38 25.446 1.38 37.74 11.346 60 23.64 60z"
          fill="#f4f8ff"/>
    <path d="M18.6 41.82h-1.8v1.8h1.8v-1.8z" class="B"/>
    <path d="M33.18 19.08H23.16V42.72H33.18V19.08Z" class="C"/>
    <path d="M34.08 43.62H22.26V18.18h11.82v25.44zm-9.96-1.8h8.16V19.98h-8.16v21.84z" class="B"/>
    <path d="M33.18 13.62h-7.26v5.46h7.26v-5.46z" class="C"/>
    <path d="M34.08 19.98h-9.06v-7.26h9.12v7.26h-.06zm-7.26-1.8h5.46v-3.66h-5.46v3.66z" class="B"/>
    <path d="M57.72 5.46H33.18v37.26h24.54V5.46z" class="C"/>
    <path d="M58.62 43.62H32.28V4.56h26.34v39.06zm-24.54-1.8h22.74V6.36H34.08v35.46z" class="B"/>
    <path d="M48.66 35.46H42.3v7.26h6.36v-7.26z" class="C"/>
    <path d="M49.56 43.62h-8.22v-9.06h8.16v9.06h.06zm-6.36-1.8h4.56v-5.46H43.2v5.46z" class="B"/>
    <path d="M54.96.9H35.88v4.56h19.08V.9z" class="C"/>
    <path d="M55.92 6.36H34.98V0h20.88v6.36h.06zm-19.08-1.8h17.28V1.8H36.84v2.76z" class="B"/>
    <path d="M43.2 18.18v-4.56h-5.46v4.56" class="C"/>
    <path d="M44.1 18.18h-1.8v-3.66h-3.66v3.66h-1.8v-5.46h7.26v5.46z" class="B"/>
    <path d="M43.2 26.34v-4.5h-5.46v4.5" class="C"/>
    <path d="M44.1 26.34h-1.8v-3.6h-3.66v3.6h-1.8v-5.46h7.26v5.46z" class="B"/>
    <path d="M54.12 18.18v-4.56h-5.46v4.56" class="C"/>
    <path d="M55.02 18.18h-1.86v-3.66h-3.6v3.66H47.7v-5.46h7.32v5.46z" class="B"/>
    <path d="M54.12 26.34v-4.5h-5.46v4.5" class="C"/>
    <path d="M55.02 26.34h-1.86v-3.6h-3.6v3.6H47.7v-5.46h7.32v5.46z" class="B"/>
    <path d="M39.54 8.16H7.74v38.16h31.8V8.16z" class="C"/>
    <path d="M39.54 47.28H7.74c-.48 0-.9-.42-.9-.9V8.16c0-.48.42-.9.9-.9h31.8c.48 0 .9.42.9.9v38.16c0 .54-.42.96-.9.96zm-30.9-1.8h30V9.12h-30v36.36z"
          class="B"/>
    <path d="M35.88 11.82H11.34v30.9h24.54v-30.9z" class="C"/>
    <g class="B">
        <path d="M35.88 27.3H11.34v1.8h24.54v-1.8zm-8.16 7.26H11.34v1.8h16.38v-1.8z"/>
        <path d="M20.46 20.88h-1.8v21.84h1.8V20.88zm8.16 0h-1.8v21.84h1.8V20.88z"/>
    </g>
    <path d="M35.88 11.82H11.34v9.12h24.54v-9.12z" fill="#a3d4ff"/>
    <path d="M36.84 21.84h-26.4V10.92h26.34v10.92h.06zM12.3 19.98h22.74v-7.26H12.3v7.26z" fill="#2a5082"/>
    <g class="B">
        <path d="M36.84 43.62h-26.4v-32.7h26.34v32.7h.06zm-24.54-1.8h22.74v-29.1H12.3v29.1z"/>
        <path d="M35.88 19.98H11.34v1.8h24.54v-1.8z"/>
    </g>
    <path d="M49.56 32.28c0 5.88-5.64 9.6-8.16 14.1-1.74 3.06.06 5.46-2.28 5.46s-.54-2.4-2.28-5.46c-2.58-4.5-8.16-7.26-8.16-14.1a10.45 10.45 0 0 1 10.44-10.44 10.45 10.45 0 0 1 10.44 10.44z"
          fill="#a3d4ff"/>
    <path d="M39.12 52.74c-2.16 0-2.22-1.62-2.28-2.76-.06-.84-.12-1.98-.84-3.18-.78-1.44-1.92-2.64-3.12-3.96-2.4-2.64-5.16-5.64-5.16-10.56 0-6.24 5.1-11.34 11.34-11.34s11.34 5.1 11.34 11.34c0 4.26-2.58 7.32-5.1 10.32-1.2 1.44-2.34 2.76-3.18 4.2-.66 1.2-.72 2.28-.78 3.18 0 1.08-.12 2.76-2.22 2.76zm-.36-1.86a.87.87 0 0 0 .36.06c.3 0 .36-.06.36-.06.06-.12.06-.6.12-.96.06-1.02.12-2.4 1.02-3.96s2.16-3.06 3.36-4.5c2.4-2.88 4.68-5.52 4.68-9.18 0-5.28-4.26-9.54-9.54-9.54s-9.6 4.26-9.6 9.54c0 4.2 2.28 6.66 4.68 9.36 1.2 1.32 2.46 2.7 3.36 4.32.9 1.56.96 2.94 1.02 3.96.06.36.06.84.18.96z"
          class="B"/>
    <path d="M39.12 36.36a4.08 4.08 0 1 0 0-8.16 4.08 4.08 0 1 0 0 8.16z" class="C"/>
    <path d="M39.12 37.38c-2.82 0-5.1-2.28-5.1-5.1s2.28-5.1 5.1-5.1 5.1 2.28 5.1 5.1-2.28 5.1-5.1 5.1zm0-8.16c-1.68 0-3.06 1.38-3.06 3.06s1.38 3.06 3.06 3.06 3.06-1.38 3.06-3.06-1.38-3.06-3.06-3.06z"
          class="B"/>
</svg>